PathFileType	4	(X/Y/Z)	./resultDataOpenSim/trcMotMarkerGrf/sub06/qtm-13-06.trc
DataRate	CameraRate	NumFrames	NumMarkers	Units	OrigDataRate	OrigDataStartFrame	OrigNumFrames
250.000000	250.000000	6	24	m	250.000000	468	534
Frame#	Time	L.Toe.Tip			R.Toe.Tip			L.Ankle.Lat			R.Ankle.Lat			L.Ankle.Med			R.Ankle.Med			L.Heel			R.Heel			L.Knee.Lat			R.Knee.Lat			L.Knee.Med			R.Knee.Med			L.Thigh.Upper			R.Thigh.Upper			L.ASIS			R.ASIS			V.Sacral			L.Acromium			R.Acromium			C7			L.Elbow			R.Elbow			L.Wrist.Lat			R.Wrist.Lat
		X1	Y1	Z1	X2	Y2	Z2	X3	Y3	Z3	X4	Y4	Z4	X5	Y5	Z5	X6	Y6	Z6	X7	Y7	Z7	X8	Y8	Z8	X9	Y9	Z9	X10	Y10	Z10	X11	Y11	Z11	X12	Y12	Z12	X13	Y13	Z13	X14	Y14	Z14	X15	Y15	Z15	X16	Y16	Z16	X17	Y17	Z17	X18	Y18	Z18	X19	Y19	Z19	X20	Y20	Z20	X21	Y21	Z21	X22	Y22	Z22	X23	Y23	Z23	X24	Y24	Z24

468	1.868	1.6666301	0.033864508	-0.052918419	1.5412812	0.077357164	0.16916176	1.5391041	0.068752098	-0.070414233	1.4497335	0.18014564	0.17218448	1.5411052	0.083090062	0.016384022	1.4909613	0.18195294	0.092199166	1.4672612	0.042322065	-0.022613775	1.4008503	0.18915633	0.103227	1.6073714	0.43783871	-0.086883073	1.6919256	0.47671517	0.20169469	1.571648	0.44240003	0.0325178	1.6968258	0.4574444	0.069697473	1.5691474	0.83078847	-0.15733486	1.5458226	0.8128869	0.18800914	1.6343751	0.8791757	-0.10718148	1.6190526	0.87784477	0.13656438	1.4390538	0.94622658	0.01072936	1.5653881	1.3539327	-0.18145845	1.5431076	1.3527428	0.17974958	1.4740893	1.3857473	-0.009045465	1.5352144	1.0280502	-0.22860163	1.4436211	1.0471754	0.23932447	1.7404105	0.88263131	-0.26148944	1.5739105	0.84597347	0.28237703
469	1.872	1.6666691	0.033849974	-0.052942053	1.5587292	0.076291363	0.17037691	1.5391653	0.068884483	-0.070293161	1.464485	0.17645592	0.17254137	1.5413583	0.083211056	0.016431029	1.5057413	0.17883257	0.092503803	1.4673526	0.042502083	-0.022454215	1.415041	0.18347657	0.10353077	1.6080398	0.43772955	-0.086832732	1.7003153	0.47895105	0.201044	1.5728715	0.44250569	0.032763437	1.7045954	0.46002718	0.069315933	1.5734935	0.8309015	-0.15721304	1.5514777	0.81467823	0.1884393	1.638915	0.87956429	-0.1073327	1.6245051	0.87914139	0.1361501	1.4440276	0.94682401	0.011017199	1.5705008	1.3549126	-0.1814073	1.5480799	1.3531713	0.17975139	1.4791181	1.3863147	-0.0090147898	1.5428244	1.0286538	-0.22942788	1.4467725	1.0483572	0.23903697	1.7512908	0.88708195	-0.26013018	1.5742166	0.84580382	0.28331026
470	1.876	1.6667069	0.03383468	-0.052968862	1.5763438	0.075265335	0.17154383	1.5392383	0.069030028	-0.070123256	1.4793897	0.17267359	0.17288981	1.5415944	0.083326272	0.016471283	1.5207317	0.17573256	0.092725031	1.4674509	0.042673755	-0.022267901	1.4310828	0.17710968	0.10347572	1.6087445	0.43762884	-0.086803293	1.7085523	0.48110279	0.20036391	1.5741526	0.44259098	0.033001584	1.7121659	0.46250873	0.068958747	1.5777968	0.83096519	-0.15708789	1.55716	0.81638981	0.18883283	1.6433677	0.87984837	-0.10747621	1.6299146	0.88035426	0.13575257	1.4490704	0.94734308	0.011369408	1.5756162	1.3558108	-0.18134131	1.5526767	1.3535849	0.17975711	1.4841489	1.3868177	-0.0089789709	1.5504569	1.0292182	-0.23030333	1.4499876	1.0494549	0.23879114	1.7620584	0.89153897	-0.2587341	1.5745611	0.84563001	0.28424695
471	1.88	1.6667404	0.033819688	-0.052997301	1.5941007	0.074312341	0.17267027	1.5393161	0.069187651	-0.069938814	1.4944417	0.16881782	0.17322644	1.5418206	0.083441981	0.016502467	1.5358045	0.17280591	0.092777314	1.4675503	0.042854751	-0.02206223	1.4490809	0.17010018	0.10304723	1.6094788	0.43753014	-0.086788491	1.7166501	0.483161	0.19965151	1.5754998	0.44264969	0.03322451	1.7195233	0.4648722	0.068622907	1.5820695	0.83097743	-0.15696337	1.5628163	0.81800168	0.18916937	1.6475832	0.88000214	-0.10763995	1.6352691	0.88148529	0.13537047	1.454165	0.94780356	0.011742476	1.5807258	1.3566257	-0.18126847	1.5568267	1.3540107	0.17975938	1.4891771	1.3872577	-0.0089397842	1.5581076	1.0297352	-0.2312224	1.4532521	1.0504757	0.23858319	1.7727239	0.89599985	-0.25730439	1.5749649	0.84544866	0.28518834
472	1.884	1.6667707	0.033804951	-0.053027588	1.6119827	0.073445052	0.17376888	1.5393928	0.069351754	-0.069785093	1.5096306	0.16490291	0.17355326	1.5420569	0.083565478	0.01652554	1.5508185	0.17005356	0.092708098	1.4676351	0.043069817	-0.021856379	1.4669276	0.16329976	0.10273741	1.6102444	0.43742828	-0.086788901	1.724612	0.48511992	0.19890348	1.576901	0.44267659	0.033430251	1.7266825	0.46711127	0.068296189	1.5863121	0.83093383	-0.15684443	1.5682511	0.81945551	0.18939706	1.6516344	0.88003151	-0.10781774	1.6406025	0.88252278	0.13501039	1.4592286	0.94820918	0.01204279	1.5858201	1.3573627	-0.1811939	1.5608134	1.3544009	0.17976558	1.494202	1.3876355	-0.0088814304	1.5657769	1.0301937	-0.23216078	1.4565282	1.0514246	0.23839599	1.7833036	0.90045722	-0.25583986	1.5754273	0.84525565	0.28612825
473	1.888	1.6668036	0.033790131	-0.053060744	1.6299619	0.072651813	0.17484573	1.5394692	0.069515205	-0.069679519	1.5249523	0.16093758	0.17387254	1.5423028	0.083699701	0.016548023	1.5660056	0.16713688	0.092735445	1.4676929	0.04332988	-0.021673862	1.4821816	0.15765013	0.10313422	1.6110519	0.437321	-0.086806783	1.7324213	0.48697526	0.19811894	1.5783361	0.44266978	0.033621365	1.7336866	0.46922994	0.067958493	1.5905256	0.8308382	-0.15673238	1.5731379	0.8206599	0.18945171	1.6558764	0.87999085	-0.10795141	1.6459542	0.88344797	0.13468034	1.4641972	0.94854719	0.012173255	1.5908968	1.3580264	-0.18111526	1.5650689	1.3546674	0.17979401	1.4992272	1.387952	-0.0087925103	1.5734655	1.0306032	-0.2330747	1.4597779	1.0523032	0.23821498	1.7938093	0.9049032	-0.25433932	1.57593	0.84504987	0.28705989
